<svg width="22" height="22" viewBox="0 0 22 22" fill="none" xmlns="http://www.w3.org/2000/svg">
<g id="search 1">
<g id="Group">
<path id="Vector" d="M4.53375 3.7403C7.74575 0.792305 12.7178 0.968305 15.6658 4.18031C18.4378 7.1283 18.4377 11.6603 15.8418 14.6523L20.5938 19.8003L19.3178 20.9883L14.5658 15.8403C11.3977 18.1723 6.86575 17.8203 4.09375 14.8723C1.14575 11.6603 1.32175 6.6883 4.53375 3.7403ZM5.36975 13.6843C7.65775 16.1483 11.5737 16.3243 14.0377 14.0363C16.5017 11.7483 16.6778 7.8323 14.3898 5.3683C12.1018 2.9043 8.18575 2.7283 5.72175 5.0163C3.21375 7.3043 3.08175 11.1763 5.36975 13.6843Z" fill="#989898"/>
</g>
</g>
</svg>
